<?xml version="1.0" encoding="UTF-8"?><svg id="a" xmlns="http://www.w3.org/2000/svg" viewBox="0 0 400 375"><defs><style>.b{fill:#fff;}.c{fill:#fff55d;}.d{fill:#ffeb53;}.e{fill:#ffd73f;}.f{fill:#ebc32b;}</style></defs><polygon class="e" points="200 250 0 125 0 250 200 375 200 250"/><polygon class="f" points="200 250 400 125 400 250 200 375 200 250"/><g><polygon class="d" points="0 125 200 0 400 125 200 250 0 125"/><path class="f" d="M199.17,173.14c-23.42,0-42.41-10.98-42.41-24.52v24.52c0,13.54,18.99,24.52,42.41,24.52s42.41-10.98,42.41-24.52v-24.52c0,13.54-18.99,24.52-42.41,24.52Z"/><path class="f" d="M300.41,114.68c-23.42,0-42.41-10.98-42.41-24.52v24.52c0,13.54,18.99,24.52,42.41,24.52s42.41-10.98,42.41-24.52v-24.52c0,13.54-18.99,24.52-42.41,24.52Z"/><path class="f" d="M99.48,115.58c-23.42,0-42.41-10.98-42.41-24.52v24.52c0,13.54,18.99,24.52,42.41,24.52s42.41-10.98,42.41-24.52v-24.52c0,13.54-18.99,24.52-42.41,24.52Z"/><path class="f" d="M200.72,57.13c-23.42,0-42.41-10.98-42.41-24.52v24.52c0,13.54,18.99,24.52,42.41,24.52s42.41-10.98,42.41-24.52v-24.52c0,13.54-18.99,24.52-42.41,24.52Z"/><ellipse class="c" cx="199.17" cy="148.62" rx="42.41" ry="24.52"/><ellipse class="b" cx="359.42" cy="215.53" rx="24.52" ry="42.41"/><ellipse cx="357.89" cy="228.02" rx="17.22" ry="29.79"/><ellipse class="c" cx="300.41" cy="90.17" rx="42.41" ry="24.52"/><ellipse class="c" cx="200.72" cy="32.61" rx="42.41" ry="24.52"/><ellipse class="c" cx="99.48" cy="91.06" rx="42.41" ry="24.52"/></g></svg>